<?xml version="1.0" encoding="utf-8"?>
<!-- Generator: Adobe Illustrator 19.0.0, SVG Export Plug-In . SVG Version: 6.00 Build 0)  -->
<svg version="1.1" id="Layer_1" xmlns="http://www.w3.org/2000/svg" xmlns:xlink="http://www.w3.org/1999/xlink" x="0px" y="0px"
	 viewBox="0 0 505.7 529.7" style="enable-background:new 0 0 505.7 529.7;" xml:space="preserve">
<style type="text/css">
	.st0{fill:#FEFEFE;}
	.st1{fill:#478bf7;}
	.st2{fill:#478bf7;}
	.st3{fill:#478bf7;}
	.st4{fill:#478bf7;}
	.st5{fill:#478bf7;}
	.st6{fill:#478bf7;}
	.st7{fill:#478bf7;}
	.st8{fill:#478bf7;}
	.st9{fill:#478bf7;}
	.st10{fill:#478bf7;}
	.st11{fill:#478bf7;}
	.st12{fill:#478bf7;}
	.st13{fill:#478bf7;}
	.st14{fill:#478bf7;}
	.st15{fill:#478bf7;}
	.st16{fill:#478bf7;}
	.st17{fill:#478bf7;}
	.st18{fill:#478bf7;}
	.st19{fill:#478bf7;}
	.st20{fill:#478bf7;}
	.st21{fill:#478bf7;}
	.st22{fill:#478bf7;}
	.st23{fill:#478bf7;}
	.st24{fill:#478bf7;}
	.st25{fill:#478bf7;}
	.st26{fill:#478bf7;}
	.st27{fill:#478bf7;}
</style>
<g>
	<path class="st0" d="M257,509.6c-81.5,0-163.1,0-244.6,0.1c-3.2,0-4.1-0.4-4-3.9c0.1-163.1,0.1-326.1,0-489.2
		c0-3.7,0.9-4.2,4.3-4.2c162.9,0.1,325.8,0.1,488.7,0c3.3,0,4.3,0.5,4.3,4.1c-0.1,163.1-0.1,326.1,0,489.2c0,3.4-0.8,3.9-4,3.9
		C420.1,509.6,338.6,509.6,257,509.6z"/>
	<path class="st1" d="M248.2,500.8c6.5-5.6,14.6-8.1,22-12c32.3-17.1,63-36.5,88.5-63c16.4-17,29.4-36,34.7-59.6
		c0.7-3.3,1.2-6.7,1.8-10c0.6-3.7,0.4-7.4,0.2-11.1c-0.2-3.7,1.1-5.4,4.4-6.9c19.9-8.5,39.6-17.3,59.4-25.9
		c8.3-3.6,16.4-7.5,24.8-10.9c1.8-0.7,3.8-2.2,5.9-0.5c1,10.7,2.1,21.4,0.3,32.1c-1.1,1.8-0.5,3.8-0.3,5.7c-0.3,3.3-0.3,6.7-1.6,9.8
		c-3.3,8.9-4.6,18.3-8.2,27.1c-7.1,16.9-16.7,32-29.1,45.5c-26.5,28.9-59.8,46.9-96.1,60c-29.9,10.8-60.9,17.2-92.3,21.8
		c-3.5,0.5-7.1,0.3-10.7,0.1C250.3,502.9,248.2,503.3,248.2,500.8z"/>
	<path class="st2" d="M287.2,124c8.9,1.8,17.6,4.4,26.2,7c1.7,0.5,3.2,1.2,4.9,1.9c-0.8,2.7-3.2,3.5-5.4,4.4
		c-49,21.4-97.9,43-146.8,64.4c-24.5,10.8-49.1,21.5-73.6,32.4c-0.8,0.2-1.4,0-2.1-0.4c-5.2-3.7-9.1-8.9-14.1-13
		c-0.9-0.7-1.6-1.6-0.8-2.9c8.2-5.3,17.4-8.5,26.2-12.4c39.3-17.4,78.7-34.6,118-51.9C242.3,143.7,264.7,133.8,287.2,124z"/>
	<path class="st3" d="M92,233.9c5-4.2,11.4-5.8,17.2-8.4c18.2-8.2,36.6-16.2,54.9-24.2c19.8-8.7,39.6-17.2,59.4-25.9
		c17.1-7.5,34.2-15.1,51.3-22.7c12.2-5.4,24.5-10.7,36.8-16.1c2.3-1,4.5-2.5,6.8-3.7c8.7,2.2,17,5.1,25.2,8.8
		c0.2,3.1-2.4,3.6-4.3,4.4c-23.9,10.4-47.7,20.9-71.5,31.4c-34.5,15.1-69,30.3-103.5,45.5c-17,7.5-34.1,14.9-51.1,22.5
		c-1.9,0.8-3.8,1.8-6,1.9C100.3,244.8,95.9,239.6,92,233.9z"/>
	<path class="st4" d="M287.2,124c-3.7,4.6-9.4,5.4-14.3,7.6c-18.2,8.3-36.5,16.2-54.9,24.2c-19.8,8.7-39.6,17.2-59.4,25.9
		c-17.6,7.7-35.1,15.6-52.6,23.3c-10.2,4.5-20.4,8.9-30.5,13.4c-0.6,0.3-1.3,0.3-1.8-0.1c-4.5-3.8-8.6-8-13-11.8
		c-0.8-0.7-1.3-1.8-0.9-3c0.9-1.7,2.6-2.4,4.2-3.1c31.5-13.8,63-27.7,94.5-41.5c30-13.2,60-26.5,90.1-39.5c1.9-0.8,3.5-2.3,5.6-2.8
		C265.3,118.2,276.3,120.7,287.2,124z"/>
	<path class="st5" d="M106.5,246.5c11.2-4.8,22.5-9.6,33.7-14.5c20.2-8.8,40.4-17.6,60.6-26.5c17.2-7.6,34.4-15.3,51.7-22.8
		c20.3-8.9,40.7-17.8,61.1-26.7c8.8-3.9,17.7-7.8,26.5-11.7c1.3-0.6,2.7-1.1,3.3-2.6c7.4,2.2,14.5,5.2,21.3,8.8
		c-4.5,4.5-10.7,5.9-16.2,8.3c-47.1,20.7-94.1,41.4-141.2,62.1c-2.4,1-4.8,2-6.2,4.4c-3.4,0.6-4.7,3.3-6.2,5.9l0.1-0.1
		c-16.2,7.2-32.4,14.3-48.6,21.4c-7.7,3.3-15.2,6.9-23,10.1C116.6,258.5,109.9,254.2,106.5,246.5z"/>
	<path class="st6" d="M23.8,156.1c1.7-8.7,6.2-15.7,13.5-20.3c17.4-11.2,35.1-22,52.7-33c15.5-6.4,30.7-13.4,46.1-20.1
		c29.9-13,59.6-26.2,89.5-39.3c2.6-1.1,5.3-3.7,8.4-1c0.7,1.7,0.2,3.2-0.5,4.7c-3.7,7.7-7.4,15.4-11.4,23c-0.5,0.9-1.1,1.6-2,2.1
		c-16.5,5.8-32.1,13.6-48.1,20.6c-47.6,20.7-94.9,41.8-142.5,62.4C27.8,156.1,26,157.8,23.8,156.1z"/>
	<path class="st7" d="M465.8,229c7.4,10.7,12.5,22.6,16.3,35c-0.7,2-2.6,2.4-4.1,3.1c-27.5,12.1-55,24.1-82.4,36.2
		c-2.7,1.2-5.5,2-8.4,0.5c-7.1-10.1-13.7-20.6-22.3-29.6c-0.5-0.5-0.3-1.2,0.1-1.8c7.5-4.5,15.7-7.4,23.7-10.9
		c23.9-10.5,47.8-21.2,71.8-31.6C462,229.1,463.7,227.7,465.8,229z"/>
	<path class="st8" d="M208.8,103.9c-1.3,3.2-2.5,5.4,3.2,5.8c4.6,0.3,9.5,0,14,1.8c-14.8,6.8-29.8,13.2-44.7,19.8
		c-34.2,15-68.4,30.1-102.6,45.1c-11,4.8-21.7,10-33,14.2c-7-3.4-12.5-8.6-16.7-15.1c-0.4-0.7-0.5-1.5,0.1-2.2
		c19.6-8.7,39.4-17.2,59-26c34.1-15.1,68.4-30,102.5-45.2c4.7-2.1,9.5-4.1,14.3-6.1c1.5-0.7,3-1.3,4.6-0.3
		C211.7,98.6,208.1,101.1,208.8,103.9z"/>
	<path class="st9" d="M209.5,96c-6.2,1.2-11.7,4.4-17.5,6.9c-34,14.9-67.8,30-101.7,44.9c-18.3,8.1-36.6,16.1-54.9,24.1
		c-2.1,0.9-4.1,1.8-6.5,1.8c-2.5-0.7-3.2-2.8-3.8-4.9c-0.5-1.7-1-3.3-1.9-4.8c0-2.6-0.8-5.3,0.6-7.8c9.1-2.9,17.5-7.3,26.2-11
		c25.9-11.2,51.6-22.5,77.4-33.9c19.9-8.7,39.8-17.6,59.6-26.4c8.8-3.9,17.6-7.9,26.5-11.7c2-0.9,4.2-1.7,6.6-1.4
		C220.6,75.6,212.6,93.8,209.5,96z"/>
	<path class="st10" d="M45.4,190.2c6-4.2,13.1-6.2,19.6-9.2c17.3-7.9,34.8-15.3,52.3-22.9c23.2-10.1,46.4-20.3,69.6-30.5
		c11.1-4.9,22.2-9.7,33.1-14.8c2-1,3.9-1.2,6-1.3c9.5,0.9,18.9,2.5,28.1,4.9c-0.9,1.9-2.6,2.8-4.4,3.6c-19.7,8.6-39.3,17.1-59,25.7
		c-17.4,7.6-34.8,15.4-52.2,23.1c-20.1,8.8-40.2,17.5-60.2,26.4c-6.2,2.7-12.2,5.7-18.4,8.6c-2.5,0.8-3.8-1-5.3-2.3
		c-2.7-2.5-5.2-5.1-7.8-7.7C46.1,192.7,44.8,191.8,45.4,190.2z"/>
	<path class="st11" d="M387.1,302.8c3.3,1.5,6.2,0.2,9.2-1.2c28.6-12.6,57.2-25.1,85.8-37.6c4,12,6.7,24.2,7.8,36.8
		c-8.1,1.8-15.3,6-22.8,9.2c-22.7,9.7-45.1,19.9-67.7,29.7c-2.7,1.2-3.5,2.5-3.5,5.4c0,3.6,1,7.4-0.6,11c0-5.5,0-11,0-16.5
		c0.7-2.8,0-5.4-0.7-8.1c-1.2-7.9-3.5-15.5-6.7-22.9C386.9,306.8,385.7,304.9,387.1,302.8z"/>
	<path class="st12" d="M465.8,229c-11.4,4.9-22.8,9.7-34.2,14.7c-20.2,8.9-40.3,17.9-60.6,26.7c-2,0.9-3.7,2.8-6.2,2.3
		c-4.2-0.4-6.3-4.1-9.4-6.3c-4.3-3.9-9.3-6.7-14.2-9.8c-1.7-1.1-3.9-1.7-4.8-3.7c1.2-3.1,4.1-4,6.7-5.1c32.3-14.2,64.7-28.3,97-42.7
		c1.7-0.8,3.3-2.1,5.5-1.4C453.4,211.2,460.3,219.6,465.8,229z"/>
	<path class="st13" d="M370.7,153.1c7.1,3.7,14.2,7.4,21.3,11.1c-0.2,3.4-3.2,3.8-5.3,4.8c-13.9,6.1-27.8,12.2-41.6,18.4
		c-28.4,12.5-56.7,24.9-85.1,37.4c-2.5,1.1-4.8,2.6-6.7,4.7c-1.1,0.4-2.1,0.2-3.2,0.1c-10.2-0.8-20.4-2.3-30.7-1.9
		c-1.6,0-3.2-0.2-4.5-1.3c-1.8-3.2,1-4,2.9-4.8c13.4-6,26.9-11.9,40.4-17.8c31.2-13.8,62.5-27.3,93.6-41.2
		C358.1,159.5,364.9,157.3,370.7,153.1z"/>
	<path class="st14" d="M253.1,229c-0.4-2.9,1.9-3.4,3.8-4.3c14.8-6.6,29.7-13.3,44.6-19.8c17.7-7.8,35.4-15.5,53.1-23.2
		c10-4.4,20.1-8.7,30.1-13.2c2.6-1.2,5.6-1.9,7.3-4.4c7.3,3.5,14.3,7.4,20.6,12.4c-1.6,2.3-4.2,3-6.5,4
		c-38,16.5-75.9,33.5-113.9,49.9c-2.7,1.2-4.8,3.2-7.6,4.2C274,233.3,263.3,232.5,253.1,229z"/>
	<path class="st15" d="M285.2,233.9c3.1-4.8,8.7-5.3,13.3-7.4c18-8.2,36.2-16,54.3-23.9c19.9-8.7,39.8-17.3,59.7-26
		c6.5,3.9,12.7,8.2,18.1,13.6c-1.5,2.3-4,3.2-6.3,4.3c-35.5,15.7-71.1,31.2-106.6,46.9c-1.5,0.7-3,1.3-4.6,1.4
		c-8.9-1.8-17.4-4.8-26.1-7.3C286.2,235.2,285.6,234.6,285.2,233.9z"/>
	<path class="st16" d="M233.7,42.6c-5.8-0.4-10.3,3.2-15.2,5.3c-23.7,10.1-47.2,20.6-70.8,31c-16.9,7.5-33.9,14.9-50.8,22.5
		c-2.3,1-4.5,1.7-7,1.5c18.7-11.8,37.3-23.6,56.1-35.4c25-15.7,50.1-31.3,75.1-47c4-2.5,8.1-4.8,12.7-5.8c7.7-1.7,11.6,2.7,9.5,10.5
		c-1.9,3.4-2.9,7.2-4.7,10.6C237.5,38.3,237.3,41.8,233.7,42.6z"/>
	<path class="st17" d="M313.3,241.6c12-5.2,24-10.3,35.9-15.5c20.1-8.8,40.2-17.5,60.3-26.4c7.1-3.1,14.1-6.4,21.1-9.6
		c5,4.5,9.9,9,14.9,13.5c-8.7,4.9-18.1,8.4-27.2,12.5c-17.8,8-35.7,15.7-53.5,23.5c-6.8,3-13.6,5.9-20.4,8.8
		c-2.8,1.2-5.5,2.6-7.8,4.7c-3.4,0.3-5.8-2.3-8.7-3.4c-4.3-1.6-8.6-3.4-12.7-5.5C314.3,243.7,313,243.2,313.3,241.6z"/>
	<path class="st13" d="M123,262c9.1-5.3,18.9-8.8,28.4-13.2c12.4-5.7,25.1-11,37.6-16.5c2-0.9,3.8-1.7,6-1.3
		c2.5,10.6,4.9,21.3,7.4,31.9c-13.2,5.6-26.4,11.3-39.5,17.3c-5.9,2.7-11.7,5.5-18.3,2.7c-3.1-0.3-4.6-3.1-6.7-4.8
		c-3.7-3.7-7.3-7.6-11.5-10.8C124.8,266,122.6,264.8,123,262z"/>
	<path class="st15" d="M144.4,282.4c0.5-0.3,1.3-1,1.6-0.9c6.7,4.4,11.9-0.7,17.3-2.9c11.9-4.9,23.5-10.3,35.2-15.5
		c1.4-0.6,2.6-1.2,4-0.1c2.9,12,5.8,23.9,8.7,35.9c-9.1,3.5-17.8,7.6-26.7,11.4c-3.5,1.5-6.9,3.3-9.6-1.2c-0.6-1-2-0.9-3.1-0.9
		c-0.7-0.1-1.3-0.4-1.9-0.8c-8.1-6.9-15.2-14.8-23.7-21.3C145.1,285.2,143.8,284.2,144.4,282.4z"/>
	<path class="st18" d="M248.2,500.8c5.8,2.1,11.6,1,17.5,0.2c19.6-2.7,38.9-6.7,58-11.7c34.4-9,67.1-22,96.3-42.7
		c28.6-20.3,50.1-46.2,62-79.5c2.2-6.2,3.4-12.7,5.1-19.1c0.1-0.2-0.8-2.1,0.8-0.8c0.3,0.2,0.1,0.9,0.2,1.4
		c-7.1,43.1-30.4,76-64.9,101.6c-29.8,22.1-63.6,35.3-99.1,44.9c-20.8,5.6-41.9,9.4-63.1,12.4c-3.6,0.5-7.4,0.3-11.1,0
		c-1.7-0.1-3.8-0.5-4.3-2.5C245.1,502.8,246.7,501.7,248.2,500.8z"/>
	<path class="st12" d="M171.6,307.7c1.9-1.8,3.9-1.2,4.7,0.9c1.3,3.4,3.4,2.7,5.7,1.6c8.3-3.6,16.5-7.3,24.8-10.9
		c1.5-0.7,2.9-1.6,4.5-0.4c2.5,10.6,6,21,7.3,31.9c0.2,1.8,0.7,3.5-0.3,5.2c-5.1,4.5-7.5,4.7-14.1,1.5c-4.4-2.2-7.8-5.7-11.4-8.8
		c-6.8-5.9-13.3-12.1-20.1-18C171.9,309.8,171.1,309,171.6,307.7z"/>
	<path class="st5" d="M200.7,225.1c-0.1-2,0.6-3.1,2.6-4c32.2-14,64.3-28,96.5-42.2c20.8-9.1,41.5-18.4,62.2-27.7
		c0.9-0.4,1.8-0.6,2.7-0.9c1.5,0.2,2.8,0.8,4,1.8c0.4,2.6-1.7,3.2-3.4,3.9c-21.1,9.4-42.2,18.6-63.4,27.9
		c-23.6,10.4-47.3,20.7-70.9,31.2c-7.8,3.5-15.9,6.4-23.3,10.8C205.4,226.5,202.9,227,200.7,225.1z"/>
	<path class="st13" d="M208.5,225.1c1.7-4.1,6-3.9,9.2-5.4c20.4-9.2,41-18.1,61.5-27.1c22.9-10,45.8-20,68.6-30
		c6.2-2.7,12.4-5.5,18.5-8.3c1.1-0.5,2-1.1,2.4-2.3c0.6,0.3,1.3,0.6,1.9,0.9c0,2.7-2.2,3.3-4.1,4.2c-25.5,11.2-51,22.3-76.5,33.4
		c-24.3,10.7-48.6,21.4-72.9,32.1c-1.2,0.5-2.4,1.1-2.9,2.4C212.4,226.7,210.4,226.7,208.5,225.1z"/>
	<path class="st19" d="M313.3,241.6c0.7,0.6,1.3,1.3,2,1.9c-0.5,2.1-2.2,2.8-3.9,3.7c-19.2-6.7-39-10.5-59.1-13.3
		c-2-0.3-4.2,0.6-6.1-0.7c-0.3-3.7,3.2-3.6,5-5.1c0.6,0.3,1.3,0.6,1.9,0.9c10.8,0.6,21.4,3.2,32,4.9
		C294.6,236.5,303.9,239,313.3,241.6z"/>
	<path class="st20" d="M251.2,228.1c-0.8,2.5-4.1,2.7-5,5.1c-17.1-1.5-34.1-2.4-51.3-2.1c0.1-0.3,0.3-0.6,0.3-0.9
		c-0.8-4.6,1.4-5.8,5.5-5.1c2.6,0,5.2,0,7.8,0c1.9,0,3.9,0,5.8,0c0.9,0.3,1.8,0.9,2.7,0.9C228.5,225.6,239.8,227.2,251.2,228.1z"/>
	<path class="st21" d="M171.6,307.7c7.4,6.8,14.8,13.6,22.3,20.3c3.9,3.5,7.7,7.3,12.7,9.3c4.3,1.7,8.1,2.3,10.6-2.8
		c0.4-0.8,0.6-1.2,1,0c0.1,0.5,0.1,1,0.1,1.4c-0.6,7.5-4.4,10.1-11.3,7.4c-2.4-1-4.7-2.2-6.6-3.9c-11.3-9.5-22-19.6-32.6-29.8
		c-0.8-2.7,0.2-3.7,2.9-2.9C170.9,307,171.3,307.3,171.6,307.7z"/>
	<path class="st22" d="M123,262c4.4,5.9,11.4,9.3,15.5,15.5c-0.7,1.1-1.8,1.7-3,2.1c-16.2-14.3-31.9-29-47.5-43.9
		c-0.8-2.7,0.2-3.7,2.9-2.9c0.3,0.3,0.7,0.6,1,1c5.2,3.8,8.7,9.5,14.6,12.6C111.2,252.6,117.4,257,123,262z"/>
	<path class="st23" d="M91,232.9c-1.9,0.1-2.8,1.1-2.9,2.9c-14.8-13.3-29.5-26.7-43.8-40.6c-0.2-2.4,1.3-2.4,3-2.1
		c4.7,3,7.3,8.5,12.6,10.7c5.2,4.9,10.4,9.7,15.5,14.6C80.7,223.2,85.8,228,91,232.9z"/>
	<path class="st24" d="M356.1,265.9c2.9,2.3,5.8,4.5,8.7,6.8c8.7,9.1,16.4,18.9,22.3,30.1c2.4,8,6,15.5,7.2,23.9
		c0.2,1.7,0.5,3.5,0.5,5.2c0.6,1,0.8,1.8-0.8,1.9c-3-18.9-11.1-35.3-23.9-49.4c-5.2-5.7-10.9-11-17-15.6
		C352.7,266.5,354.3,266.1,356.1,265.9z"/>
	<path class="st21" d="M356.1,265.9c-0.7,1.2-2.5,1.4-2.9,3c-12.8-9.4-27.1-15.7-41.7-21.6c0.5-2.1,2.5-2.5,3.9-3.7
		c7.3,2.8,14.8,5.3,21.3,9.7C343.8,256.4,350.5,260.3,356.1,265.9z"/>
	<path class="st25" d="M233.7,42.6c4-5.5,5.9-12,8.6-18.2c0.1-0.2-0.3-2.2,1-0.6c0.3,0.3,0.1,0.9,0.1,1.4c0.1,3.7-1.5,6.9-2.9,10.1
		c-10.1,22.6-21.6,44.6-30.9,67.5c-0.2,0.4-0.6,0.7-0.9,1.1c-3.1-2.9,1.8-5.2,0.7-7.9c3.6-8.1,7.1-16.2,10.7-24.3
		C224.5,62,230.5,52.9,233.7,42.6z"/>
	<path class="st19" d="M135.6,279.7c0.1-2,1.4-2.2,3-2.1c1.9,1.6,3.9,3.2,5.8,4.9c8.1,7.4,16.1,14.9,24.2,22.3c0.7,0.6,1.3,1.3,2,2
		c-1.8,0.1-2.8,1.1-2.9,2.9C157,299.7,145.8,290.2,135.6,279.7z"/>
	<path class="st26" d="M47.3,193.1c-1.1,0.6-2.4,0.9-3,2.1c-9.5-7.6-18.4-15.7-20.9-28.4c-0.2-0.9-0.1-1.9-0.2-2.8
		c3.5,2.3,2.6,7.1,5.7,9.7c3.9,7.1,10.8,11.2,16.5,16.5C46,191.2,46.7,192.1,47.3,193.1z"/>
	<path class="st1" d="M394.1,333.8c0.3-0.6,0.5-1.3,0.8-1.9c1.6,2.5,1.3,5.1,0.2,7.7C394.8,337.7,394.4,335.8,394.1,333.8z"/>
	<path class="st27" d="M489.8,338.7c-1.2-1.8-0.7-3.8-0.4-5.8c0-0.1,0.3-0.1,0.4-0.1c0.1,0,0.3,0.1,0.4,0.2
		C490,334.9,489.9,336.8,489.8,338.7z"/>
</g>
</svg>
