<?xml version="1.0" encoding="utf-8"?>
<!-- Generator: Adobe Illustrator 19.0.0, SVG Export Plug-In . SVG Version: 6.00 Build 0)  -->
<svg version="1.1" id="Layer_1" xmlns="http://www.w3.org/2000/svg" xmlns:xlink="http://www.w3.org/1999/xlink" x="0px" y="0px"
	 viewBox="0 0 165.4 164.6" style="enable-background:new 0 0 165.4 164.6;" xml:space="preserve">
<style type="text/css">
	.st0{fill:#478BF7;}
	.st1{fill:#7692E8;}
	.st2{fill:#FEFEFE;}
</style>
<path class="st0" d="M82.1,8.7c0.1,0,0.2,0,0.3,0c0.7,0.3,1.4,0.1,2,0.1c3,0.2,4.7,1.7,5.2,4.7c0.2,1.3,0.2,2.6,0.3,4
	c0,2.1,0.2,2.5,2.4,2.8c4,0.6,7.9,1.5,11.7,2.8c8.5,2.9,16.1,7.4,22.8,13.5c9.6,8.8,15.9,19.4,19.2,32c0.6,2.2,0.9,4.5,1.3,6.8
	c0.4,2,0.6,2.2,2.6,2.2c0.7,0,1.4,0,2.1,0c4.2,0.1,6,1.5,6.9,5.4c0,0.1,0,0.2,0,0.3c-0.3,0.7-0.1,1.4-0.1,2c-0.2,3-1.7,4.7-4.7,5.2
	c-1.3,0.2-2.6,0.2-4,0.3c-2.1,0-2.5,0.2-2.8,2.4c-0.5,4-1.5,7.8-2.7,11.6c-2.9,8.6-7.4,16.2-13.5,22.9c-8.8,9.6-19.5,15.9-32,19.2
	c-2.2,0.6-4.5,0.9-6.8,1.3c-2,0.4-2.2,0.6-2.2,2.6c0,0.7,0,1.4,0,2.1c-0.1,4.2-1.5,6-5.4,6.9c-0.2,0-0.4,0-0.6,0
	c-0.6-0.3-1.2-0.1-1.8-0.1c-3-0.2-4.6-1.7-5.2-4.7c-0.2-1.2-0.2-2.4-0.2-3.7c0-2.5-0.2-2.8-2.7-3.1c-5.4-0.7-10.7-2.2-15.7-4.4
	C51.5,140.9,45.4,137,40,132c-6.5-5.9-11.6-12.8-15.3-20.7c-2.6-5.5-4.4-11.4-5.2-17.4c-0.1-0.4-0.2-0.9-0.2-1.3
	c-0.1-1.3-0.9-1.8-2.1-1.8c-1.3,0-2.6,0.1-3.8-0.1c-3.1-0.4-5-2-5.5-5.1c0-0.2,0-0.4,0-0.6c0.3-0.7,0.1-1.4,0.1-2
	c0.2-3,1.7-4.7,4.7-5.2c1.3-0.2,2.6-0.2,4-0.3c2.1,0,2.5-0.2,2.8-2.4c0.6-4,1.5-7.9,2.8-11.7c2.9-8.5,7.4-16.1,13.5-22.8
	c8.8-9.6,19.4-15.9,32-19.2c2.2-0.6,4.5-0.9,6.8-1.3c2-0.4,2.2-0.6,2.2-2.6c0-0.7,0-1.4,0-2.1C76.7,11.4,78.2,9.6,82.1,8.7z"/>
<path class="st1" d="M84.5,8.7c0,0.1,0,0.2,0.1,0.3c-0.7,0-1.5,0.2-2.1-0.3C83.1,8.7,83.8,8.7,84.5,8.7z"/>
<path class="st1" d="M7.8,83c0.1-0.1,0.2-0.1,0.3-0.1c0,0.7,0.2,1.5-0.3,2.1C7.8,84.4,7.8,83.7,7.8,83z"/>
<path class="st1" d="M158.8,85.4l-0.1,0.1l-0.1,0c0-0.7-0.2-1.5,0.3-2.1C158.8,84,158.8,84.7,158.8,85.4z"/>
<path class="st1" d="M82.1,159.7c0-0.1,0-0.2-0.1-0.3c0.6,0,1.3-0.2,1.8,0.3C83.3,159.7,82.7,159.7,82.1,159.7z"/>
<path class="st2" d="M129.2,77.4c0.2,1-0.4,0.9-0.9,0.9c-1.8,0.1-3.5-0.1-5.3,0.2c-2.8,0.5-4.9,2.8-4.8,5.5c0,3.1,2,5.3,4.9,5.8
	c1.7,0.3,3.3,0.1,5,0.1c0.8,0,1.2,0.1,1.1,1.1c-2.9,19.2-17.6,34.7-36.7,38.6c-3.3,0.7-3.3,0.7-3.3-2.7c0-1.8,0-3.6-1-5.3
	c-1.3-2-3.6-3-6-2.6c-2.2,0.4-4.1,2.4-4.5,4.5c-0.3,1.8-0.2,3.5-0.2,5.3c0,0.8-0.1,1.2-1.1,1.1c-19.3-2.9-34.8-17.7-38.6-36.9
	C37.1,90,37.1,90,40.3,90c1.9,0,3.7,0.1,5.4-1c2-1.3,3-3.6,2.6-6c-0.4-2.2-2.4-4.1-4.5-4.5c-1.8-0.3-3.5-0.2-5.3-0.2
	c-0.8,0-1.2-0.1-1.1-1.1C40.3,58,55.1,42.4,74.3,38.6c3.2-0.6,3.2-0.6,3.2,2.6c0,1.9-0.1,3.7,1,5.4c1.3,2,3.6,3,6,2.6
	c2.2-0.4,4.1-2.4,4.5-4.5c0.3-1.8,0.2-3.5,0.2-5.3c0-0.8,0.1-1.2,1.1-1.1c19.3,2.9,34.8,17.7,38.6,36.9
	C129,76,129.1,76.8,129.2,77.4z"/>
</svg>
