<?xml version="1.0" encoding="utf-8"?>
<!-- Generator: Adobe Illustrator 19.0.0, SVG Export Plug-In . SVG Version: 6.00 Build 0)  -->
<svg version="1.1" id="Layer_1" xmlns="http://www.w3.org/2000/svg" xmlns:xlink="http://www.w3.org/1999/xlink" x="0px" y="0px"
	 viewBox="0 0 165.4 164.6" style="enable-background:new 0 0 165.4 164.6;" xml:space="preserve">
<style type="text/css">
	.st0{fill:#478BF7;}
	.st1{fill:#0289F3;}
	.st2{fill:#0B8BF3;}
	.st3{fill:#0B8CF3;}
	.st4{fill:#0E8CF3;}
	.st5{fill:#F1F7FD;}
</style>
<path class="st0" d="M116.4,48.9c-6.3,2.2-11.1,6.8-16.6,10.4C86,68.3,72.2,77.7,59.1,87.9c-6.9,5.4-13,5.7-20.8,3.4
	C27.7,88,16.8,85.7,6.1,83c0.3-0.7-0.4-1.6,0.3-2.3c22.1-11.1,44.1-22.3,66.2-33.3c28.4-14.3,56.9-28.5,85.4-42.7
	c3-0.6,1.3,2.3,2.3,3.1c-10.4,38.5-20.9,76.9-31.4,115.4c-2,7.4-4.2,14.7-6.3,22c-1.5-0.3-0.4,3-2.5,1.8
	c-11.9-10.5-24.1-20.8-35.7-31.6c-4.8-4.5-10.3-8.3-14.5-13.4c-1.2-1.5-1.5-2.2,0-3.5c8.8-7.1,15.1-16.6,23.4-24.2
	c7.9-7.2,14.1-16.3,22.3-23.3C116.1,50.6,116.1,49.5,116.4,48.9L116.4,48.9z"/>
<path class="st0" d="M65,116.8c5.7,4.9,11.3,10,17.1,14.8c1.6,1.4,0.7,2.2-0.1,3.3c-5.8,7.7-11.5,15.4-17.3,23.1
	c-2.3,0.3-1.8-1.4-1.8-2.6c0-12,0-23.9,0-35.9C62.9,118.2,62.4,116.2,65,116.8z"/>
<path class="st1" d="M65,116.8c-1.5,0.3-1.6,1.4-1.6,2.7c0,11.8,0,23.7,0,35.5c0,1.2,0.2,2.3,1.4,3c-0.5,1-0.8,2.1-2.7,2.7
	c0-8.4,0-16.6,0-24.8c0-6.1,0-12.3,0-18.4c0-0.9-0.4-2.3,0.8-2.5C63.4,114.9,64.3,116.2,65,116.8z"/>
<path class="st2" d="M160.2,7.8c-1.2-0.7-0.7-2.7-2.3-3.1c0.8-0.9,1.8-1.6,3.2-1.5C161.7,5,160.5,6.3,160.2,7.8z"/>
<path class="st3" d="M6.3,80.7c0.2,0.8,1,1.7-0.3,2.3C5,82.9,4,82.7,2.7,82.5C3.8,81.3,4.9,80.5,6.3,80.7z"/>
<path class="st4" d="M120,147c1.4,0.2,0.5-2.8,2.5-1.8c-0.1,1,0.2,2.4-0.8,3C121.1,148.6,120.4,147.8,120,147z"/>
<path class="st5" d="M116.4,48.9c0.1-0.3,0.3-0.6,0.4-0.8C117.5,48.8,116.7,48.7,116.4,48.9C116.3,48.8,116.4,48.9,116.4,48.9z"/>
</svg>
