<?xml version="1.0" encoding="utf-8"?>
<!-- Generator: Adobe Illustrator 19.0.0, SVG Export Plug-In . SVG Version: 6.00 Build 0)  -->
<svg version="1.1" id="Layer_1" xmlns="http://www.w3.org/2000/svg" xmlns:xlink="http://www.w3.org/1999/xlink" x="0px" y="0px"
	 viewBox="-430 338.3 330.5 164.6" style="enable-background:new -430 338.3 330.5 164.6;" xml:space="preserve">
<style type="text/css">
	.st0{fill:#FEFEFE;}
	.st1{fill:#478BF7;}
	.st2{fill:#3F9FDC;}
	.st3{fill:#71B7E5;}
	.st4{fill:#7ABCE7;}
	.st5{fill:#61B0E2;}
	.st6{fill:#54A9E0;}
	.st7{fill:#47A3DE;}
</style>
<path class="st0" d="M-428.8,489.2c0-50.1,0-100.2,0-150.4c0-0.9,0.2-1.1,1.1-1.1c53.1,0,106.2,0,159.2,0c-0.1,0.7-0.7,0.5-1.1,0.6
	c-4,0.5-7.9,1.4-11.6,2.9c-5.3,2.2-9.9,5.3-13.7,9.6c-5.7,6.4-8.6,14.1-9.6,22.5c-1.3,10.1,0.3,20,3,29.7
	c2.8,9.9,6.9,19.2,11.8,28.2c1.6,2.9,2.9,5.9,3.1,9.2c0.4,4.6-1.7,8.1-5.2,10.9c-3.5,2.7-7.5,4.4-11.6,5.8c-6.2,2.1-12.5,3.5-18.9,5
	c-5,1.2-10,2.4-14.4,5.1c-4,2.5-6.7,5.9-8.1,10.5c-1,3.4-1.4,6.9-1.5,10.4c-0.1,2.4,0,4.8-0.2,7.2c-0.1,2.1,0.2,4.3,0.2,6.5
	c0,0.7,0.4,0.9,1,0.9c0.4,0,0.7,0,1.1,0c53.5,0,107,0,160.5,0c0.1,0,0.2,0,0.4,0c1.7,0,1.7,0,1.7-1.8c0.1-4.4,0.1-8.7,0-13.1
	c-0.1-3.7-0.5-7.4-1.7-11c-1.7-4.9-5-8.3-9.5-10.6c-4-2.1-8.4-3.2-12.7-4.2c-6.9-1.6-13.8-3.2-20.5-5.6c-3.2-1.2-6.3-2.6-9.2-4.6
	c-5.7-4.1-7.4-9.8-4.9-16.3c1.1-2.8,2.5-5.3,3.8-8c2.4-4.9,4.7-9.9,6.6-15.1c2.6-6.9,4.6-13.9,5.7-21.2c0.7-4.5,1.1-9,0.9-13.5
	c-0.4-7.5-1.9-14.7-5.7-21.3c-4.6-7.8-11.3-13-19.8-16c-3.2-1.1-6.6-1.8-9.9-2.2c-0.4-0.1-1,0.1-1.1-0.6c53.2,0,106.5,0,159.7,0
	c0.8,0,1.1,0.1,1.1,1.1c0,54.5,0,109,0,163.5c0,0.9-0.2,1-1,1c-109.3,0-218.5,0-327.8,0c-0.3,0-0.7,0.3-1-0.2
	c0.1-0.1,0.2-0.2,0.3-0.2c0.6-0.2,1.3-0.1,1.9-0.1c19.7,0,39.4,0,59,0c0.3,0,0.6,0,1,0c1.4,0,1.5-0.1,1.5-1.5s0-2.8,0-4.2
	c0.2-8.3,1-16.6,3.4-24.6c1.9-6.4,4.9-12.2,9.5-17.1c2.9-3.1,6.2-5.9,9.2-8.9c5.5-5.4,8.8-12,10.5-19.5c1-4.3,1.5-8.7,1.8-13.1
	c0.3-3.8,0.4-7.7,0.1-11.5c-0.5-7.7-2.8-14.8-8.2-20.6c-5.1-5.5-11.4-8.3-18.7-9.4c-5.4-0.8-10.8-0.5-16,1.1
	c-10.5,3.1-17.3,10-20.4,20.5c-1.5,5.1-1.8,10.3-1.4,15.6c0.8,10.7,4.3,20.5,8.7,30.2c1.3,2.8,2.8,5.6,4.1,8.4
	c0.8,1.6,1.3,3.4,1.5,5.2c0.3,4-1.5,6.9-4.5,9.1c-4,2.9-8.6,4.4-13.3,5.7c-5.2,1.5-10.6,2.5-15.8,4c-2,0.6-4,1.4-5.8,2.5
	c-4.7,2.7-6.8,7-7.6,12.2c-0.1,0.6-0.2,1.3-0.3,1.9C-428.3,488.9-428.3,489.3-428.8,489.2z"/>
<path class="st1" d="M-259.8,337.8c1.3,0.5,2.6,0.4,3.9,0.7c8.1,1.3,15.3,4.6,21.2,10.3c4.6,4.4,7.7,9.8,9.6,15.8
	c2,6.5,2.6,13.1,2.1,19.9c-0.9,14-5.5,26.9-11.3,39.5c-1.8,3.8-3.9,7.4-5.5,11.3c-1.5,3.8-2,7.7,0.1,11.5c1.5,2.8,3.9,4.7,6.6,6.3
	c5.5,3.2,11.4,4.9,17.5,6.4c5.2,1.3,10.4,2.5,15.6,3.9c4,1.1,7.9,2.7,11.2,5.3c3.6,2.9,5.5,6.6,6.5,11c0.7,3.1,1,6.2,1,9.4
	c0,4.2,0,8.5,0.1,12.7c0,1.1-0.3,1.4-1.4,1.4c-34.6,0-69.3,0-103.9,0c-19.6,0-39.1,0-58.7,0c-1.8,0-1.5,0.3-1.6-1.6
	c-0.1-5.6-0.1-11.2,0.3-16.8c0.3-3.9,1.1-7.7,3.1-11.2c2.6-4.6,6.8-7.2,11.6-9c5-1.9,10.3-2.8,15.5-4.1c5.8-1.5,11.7-2.9,17.3-5.3
	c2.3-1,4.5-2.2,6.6-3.7c4.9-3.5,6.6-8.5,4.9-14.2c-0.6-2.2-1.6-4.2-2.7-6.1c-4.5-8.4-8.4-17.1-11.2-26.3c-2.4-8-4-16.2-3.9-24.6
	c0.1-7.7,1.4-15.2,5.1-22.1c4.7-8.8,11.8-14.6,21.2-17.9c3.3-1.1,6.6-1.8,10.1-2.1c0.2,0,0.5,0,0.6-0.3c0.2,0,0.5,0,0.7,0
	c0.5,0.3,1.1,0.1,1.7,0.1c0.5-0.1,1,0.1,1.5-0.1c0.6,0,1.1,0,1.7,0c0.8,0.2,1.6,0.2,2.4,0C-260.3,337.8-260.1,337.8-259.8,337.8z"/>
<path class="st1" d="M-428.8,489.2c0.6-1.2,0.5-2.5,0.7-3.7c1.1-6.6,5.1-10.7,11.2-13c3.9-1.5,8-2.2,12-3.2c5.1-1.3,10.2-2.5,15-4.8
	c2.7-1.3,5.2-2.8,7-5.3c1.5-2.2,1.9-4.5,1.5-7.1c-0.4-2.2-1.3-4.3-2.4-6.2c-4.1-7.9-7.6-16.1-9.8-24.8c-1.5-6-2.4-12.1-2-18.3
	c0.4-7.3,2.4-14.2,7.1-20c5-6.2,11.6-9.5,19.4-10.7c7.2-1.1,14.3-0.5,21,2.5c7.7,3.4,12.9,9.2,15.8,17.1c1.7,4.7,2.3,9.6,2.3,14.6
	c-0.1,6.8-0.5,13.5-1.9,20.1c-1.9,9.1-6.4,16.5-13.3,22.6c-3.8,3.3-7.5,6.8-10.3,11c-4.1,6-6.2,12.7-7.5,19.7
	c-1.3,7.3-1.8,14.8-1.7,22.2c0,0.8-0.1,1.1-1,1.1c-20.8,0-41.5,0-62.3,0c-0.2,0-0.3,0-0.5,0c-0.3-1.3,0.1-2.7-0.2-4c0-1,0-2.1,0-3.1
	c0.3-0.5,0.1-1,0.1-1.5s0-1.1,0-1.6c-0.1-0.7,0.1-1.5-0.1-2.2C-428.8,490.2-428.8,489.7-428.8,489.2z"/>
<path class="st2" d="M-428.8,499.1c0.5,1.3,0.1,2.7,0.2,4c-0.1,0-0.2,0-0.2,0C-428.8,501.8-428.8,500.4-428.8,499.1z"/>
<path class="st3" d="M-260.5,337.8c-0.8,0.4-1.6,0.3-2.4,0C-262.1,337.8-261.3,337.8-260.5,337.8z"/>
<path class="st4" d="M-428.8,490.7c0.5,0.7,0.1,1.4,0.2,2.2c-0.1,0.1-0.1,0.1-0.2,0C-428.8,492.1-428.8,491.4-428.8,490.7z"/>
<path class="st4" d="M-266.1,338c-0.6-0.1-1.2,0.3-1.7-0.2c0.6,0,1.1,0,1.7,0C-266,337.8-266,337.9-266.1,338
	C-266,338-266.1,338-266.1,338z"/>
<path class="st5" d="M-428.8,492.8c0.1,0,0.1,0,0.2,0c0,0.6,0,1.1,0,1.7c-0.1,0.1-0.2,0.1-0.2,0C-428.8,494-428.8,493.4-428.8,492.8
	z"/>
<path class="st6" d="M-266.1,338c0-0.1,0-0.2,0-0.2c0.5,0,1,0,1.4,0C-265.1,338.2-265.6,338-266.1,338z"/>
<path class="st7" d="M-428.8,494.5c0.1,0,0.2,0,0.2,0c-0.1,0.5,0.2,1-0.2,1.4C-428.8,495.5-428.8,495-428.8,494.5z"/>
<path class="st1" d="M-131.3,503.2c-10.2,0-20.5,0-30.7,0c-1,0-1.3-0.2-1.3-1.2c0.1-7-0.4-13.9-1.5-20.8c-1.2-7.4-3.3-14.5-7.6-20.9
	c-2.9-4.2-6.5-7.7-10.3-11c-8-7-12.5-15.8-14.1-26.2c-1-6.9-1.5-13.8-1.1-20.8c0.5-8.3,3.2-15.7,9.2-21.7c4.9-4.8,10.8-7.4,17.5-8.4
	c5.8-0.9,11.5-0.6,17.1,1.2c10.5,3.3,17.2,10.3,20.2,20.8c2.1,7.4,1.8,14.9,0.4,22.4c-1.9,10.4-6,20-10.8,29.4
	c-0.9,1.7-1.7,3.4-2.1,5.2c-1.2,4.5,0.2,8.2,3.9,10.9c4.2,3,8.9,4.5,13.8,5.8c4.8,1.3,9.6,2.4,14.4,3.6c3.1,0.8,6,2,8.6,4
	c3.7,2.9,5.3,6.8,5.9,11.3c0.7,5.1,0.4,10.3,0.5,15.4c0,1-0.6,0.9-1.2,0.9C-110.7,503.1-121,503.2-131.3,503.2z"/>
</svg>
